<?xml version="1.0" encoding="UTF-8"?>
<svg xmlns="http://www.w3.org/2000/svg" width="50" height="50" viewBox="0 0 50 50" fill="none">
  <circle cx="25" cy="25" r="25" fill="#229ED9"></circle>
  <path d="M15.884 24.0165C15.884 24.0165 24.0662 20.6687 26.904 19.49C27.9917 19.0185 31.6809 17.5096 31.6809 17.5096C31.6809 17.5096 33.3835 16.8496 33.2416 18.4526C33.1942 19.1127 32.8159 21.4231 32.4375 23.9221C31.87 27.4585 31.2551 31.3247 31.2551 31.3247C31.2551 31.3247 31.1606 32.4092 30.3566 32.5978C29.5525 32.7865 28.2282 31.9377 27.9917 31.7491C27.8026 31.6076 24.4446 29.4858 23.215 28.4486C22.8839 28.1657 22.5055 27.5998 23.2622 26.9397C24.9649 25.3838 26.9986 23.4506 28.2282 22.2247C28.7957 21.6588 29.3634 20.3386 26.9986 21.9417C23.6406 24.2521 20.3299 26.4211 20.3299 26.4211C20.3299 26.4211 19.5732 26.8926 18.1544 26.4682C16.7355 26.0438 15.0801 25.4781 15.0801 25.4781C15.0801 25.4781 13.9451 24.7707 15.8842 24.0165H15.884Z" stroke="white" stroke-width="1.5"></path>
</svg>
