<?xml version="1.0" encoding="UTF-8"?>
<svg xmlns="http://www.w3.org/2000/svg" width="50" height="50" viewBox="0 0 50 50" fill="none">
  <circle cx="25" cy="25" r="25" fill="#7360F2"></circle>
  <path d="M20.9647 19.2019C20.779 19.1747 20.5895 19.212 20.4279 19.3075H20.4141C20.0389 19.5275 19.7009 19.8054 19.4127 20.1311C19.1732 20.4081 19.0432 20.6883 19.0091 20.958C18.9888 21.1188 19.0025 21.2796 19.0504 21.4331L19.0675 21.4436C19.3372 22.2364 19.6896 22.9989 20.1201 23.7169C20.6747 24.7255 21.3571 25.6583 22.1506 26.4922L22.1742 26.5263L22.2116 26.5539L22.2352 26.5814L22.2628 26.6051C23.0997 27.4008 24.0347 28.0865 25.0453 28.6453C26.2003 29.274 26.9012 29.5713 27.3218 29.6947V29.7012C27.4452 29.7387 27.5574 29.7557 27.6703 29.7557C28.0288 29.7294 28.3682 29.5839 28.6343 29.3423C28.9585 29.054 29.2334 28.7146 29.4481 28.3376V28.331C29.6495 27.9517 29.5813 27.5927 29.2906 27.3499C28.7083 26.841 28.0788 26.389 27.4104 26C26.9628 25.7572 26.5081 25.9042 26.3237 26.1503L25.9306 26.6457C25.7291 26.8918 25.3629 26.8577 25.3629 26.8577L25.3524 26.8643C22.6217 26.1667 21.8933 23.4019 21.8933 23.4019C21.8933 23.4019 21.8592 23.0259 22.1118 22.8342L22.604 22.4378C22.8396 22.2462 23.0037 21.7921 22.751 21.3439C22.3648 20.6746 21.9137 20.0449 21.4044 19.4637C21.2931 19.3267 21.1368 19.2335 20.9634 19.2006L20.9647 19.2019Z" fill="white"></path>
  <path d="M25.5781 18.0001C25.302 18.0001 25.0781 18.2239 25.0781 18.5001C25.0781 18.7762 25.302 19.0001 25.5781 19.0001C26.8426 19.0001 27.8933 19.4134 28.7234 20.2048C29.1507 20.6382 29.4833 21.1512 29.7017 21.7126C29.9209 22.2761 30.0206 22.877 29.995 23.4789C29.9833 23.7547 30.1974 23.9879 30.4733 23.9996C30.7492 24.0114 30.9824 23.7972 30.9941 23.5213C31.0256 22.7809 30.9028 22.0421 30.6336 21.3501C30.3644 20.658 29.9547 20.0274 29.4296 19.4965L29.4196 19.4869C28.3896 18.5019 27.084 18.0001 25.5781 18.0001Z" fill="white"></path>
  <path d="M25.5469 19.6444C25.2708 19.6444 25.0469 19.8683 25.0469 20.1444C25.0469 20.4205 25.2708 20.6444 25.5469 20.6444H25.5632C26.4757 20.7087 27.1396 21.0128 27.6051 21.5121C28.0816 22.0262 28.3284 22.6649 28.3101 23.4551C28.3037 23.7311 28.5224 23.9601 28.7984 23.9665C29.0745 23.9729 29.3035 23.7543 29.3099 23.4782C29.3339 22.4407 29.0002 21.5461 28.338 20.8317L28.3371 20.8308C27.6605 20.1047 26.7322 19.7206 25.6139 19.6455L25.5972 19.6444H25.5469Z" fill="white"></path>
  <path d="M25.5263 21.3188C25.2505 21.3042 25.0152 21.516 25.0007 21.7918C24.9862 22.0675 25.198 22.3029 25.4737 22.3174C25.8924 22.3394 26.1592 22.465 26.327 22.6344C26.4956 22.8046 26.6216 23.0771 26.6446 23.5043C26.6595 23.7801 26.895 23.9916 27.1708 23.9767C27.4465 23.9619 27.658 23.7264 27.6432 23.4506C27.6109 22.8506 27.4231 22.3201 27.0376 21.9308C26.6513 21.5407 26.1238 21.3502 25.5263 21.3188Z" fill="white"></path>
  <path fill-rule="evenodd" clip-rule="evenodd" d="M20.0667 15.3836C23.2488 14.6723 26.5487 14.6723 29.7308 15.3836L30.0699 15.4594C31.9667 15.8833 33.4637 17.3382 33.9418 19.222C34.7495 22.4049 34.7495 25.7391 33.9418 28.9219C33.4637 30.8058 31.9666 32.2606 30.0699 32.6846L29.7308 32.7604C27.732 33.2072 25.6867 33.3733 23.6533 33.2588L21.0001 35.6327C20.7964 35.815 20.5096 35.872 20.2516 35.7815C19.9937 35.691 19.8054 35.4673 19.7603 35.1976L19.3215 32.5763C17.6191 32.0473 16.2992 30.6691 15.8558 28.9219C15.0481 25.7391 15.0481 22.4049 15.8558 19.222C16.3339 17.3382 17.8309 15.8833 19.7277 15.4594L20.0667 15.3836ZM29.4036 16.8474C26.437 16.1843 23.3606 16.1843 20.3939 16.8474L20.0549 16.9232C18.7101 17.2238 17.6487 18.2553 17.3097 19.591C16.5634 22.5317 16.5634 25.6122 17.3097 28.5529C17.6487 29.8886 18.7101 30.9201 20.0549 31.2207L20.1445 31.2407C20.4424 31.3073 20.6702 31.5478 20.7206 31.8488L21.0148 33.6068L22.8872 31.9315C23.0384 31.7962 23.2379 31.7279 23.4403 31.7423C25.4338 31.8834 27.4427 31.7348 29.4036 31.2965L29.7426 31.2207C31.0875 30.9201 32.1489 29.8886 32.4879 28.5529C33.2341 25.6122 33.2341 22.5317 32.4879 19.591C32.1489 18.2553 31.0875 17.2238 29.7426 16.9232L29.4036 16.8474Z" fill="white"></path>
</svg>
