<?xml version="1.0" encoding="UTF-8"?>
<svg xmlns="http://www.w3.org/2000/svg" width="19" height="19" viewBox="0 0 19 19" fill="none">
  <g clip-path="url(#clip0_2002_1204)">
    <path fill-rule="evenodd" clip-rule="evenodd" d="M18.1902 13.4545C17.7707 12.6448 17.218 11.9051 16.5533 11.2639C16.3272 11.0119 16.0619 10.7632 15.8549 10.5691L15.826 10.542C15.7192 10.4417 15.6309 10.3586 15.5587 10.287C16.4676 9.07569 17.2455 7.77871 17.8802 6.41597L17.9058 6.36099L17.9237 6.30328C18.0071 6.03506 18.1032 5.52502 17.7633 5.06408C17.4121 4.58765 16.8496 4.50173 16.4729 4.50173H14.74C14.3788 4.48586 14.021 4.57946 13.7179 4.76977C13.4125 4.9615 13.1789 5.24118 13.0504 5.56811C12.6772 6.42009 12.2103 7.23047 11.658 7.98569V6.03936C11.658 5.78777 11.6333 5.36691 11.3522 5.01169C11.0157 4.58637 10.529 4.50173 10.1911 4.50173H7.44146C7.0872 4.49388 6.74265 4.61528 6.47787 4.84191C6.20673 5.074 6.04055 5.39819 6.0146 5.74574L6.01215 5.77866V5.81167C6.01215 6.1705 6.1605 6.43519 6.27903 6.60165C6.33209 6.67618 6.38885 6.74402 6.4247 6.78687L6.43298 6.79676C6.4712 6.84245 6.49672 6.87295 6.52233 6.90633C6.5897 6.99416 6.68659 7.12956 6.714 7.47995V8.56865C6.23996 7.82179 5.7399 6.82792 5.36363 5.76644L5.35786 5.75015L5.35146 5.73408C5.25764 5.49858 5.10717 5.15592 4.8058 4.8937C4.45373 4.58737 4.0373 4.50173 3.65859 4.50173H1.90032C1.51719 4.50173 1.0553 4.58764 0.710667 4.93608C0.371758 5.27873 0.333374 5.6893 0.333374 5.9076V6.006L0.354997 6.10219C0.842005 8.26865 1.84548 10.2975 3.2866 12.03C3.93996 13.0174 4.82529 13.8452 5.87213 14.4468C6.93568 15.058 8.13554 15.4183 9.37283 15.4979L9.40507 15.5H9.43746C9.99718 15.5 10.5807 15.4537 11.0195 15.1735C11.6115 14.7954 11.658 14.2147 11.658 13.9254V13.0843C11.8099 13.202 11.9984 13.3605 12.2291 13.5734C12.5081 13.841 12.7302 14.0728 12.9207 14.2752L13.0223 14.3836L13.0229 14.3841C13.1708 14.542 13.3164 14.6975 13.449 14.8252C13.6157 14.9857 13.8211 15.1627 14.0794 15.2933C14.359 15.4349 14.6525 15.4989 14.9643 15.4989H16.7238C17.0944 15.4989 17.6261 15.4149 17.9999 14.9995C18.4072 14.5469 18.3761 13.9921 18.248 13.5934L18.225 13.5217L18.1902 13.4545ZM13.7795 13.5325C13.5815 13.3221 13.3427 13.0726 13.0408 12.7834L13.0384 12.7811C11.9925 11.8147 11.5038 11.6463 11.1584 11.6463C10.9746 11.6463 10.7712 11.6661 10.6393 11.8236C10.577 11.898 10.5443 11.9877 10.5259 12.0812C10.5076 12.1745 10.5012 12.2841 10.5012 12.409V13.9254C10.5012 14.1137 10.4689 14.1928 10.3781 14.2509C10.257 14.3282 9.99826 14.3909 9.44393 14.3913C8.39173 14.3226 7.37153 14.0158 6.46699 13.4959C5.5606 12.9751 4.7963 12.2552 4.23702 11.3958L4.23093 11.3865L4.22373 11.3778C2.88089 9.77594 1.94518 7.8968 1.49038 5.88889C1.49285 5.79209 1.51473 5.73467 1.55018 5.69882C1.58671 5.66189 1.67523 5.61041 1.90032 5.61041H3.65859C3.85418 5.61041 3.9554 5.65119 4.02826 5.71458C4.11085 5.78644 4.18249 5.90848 4.26951 6.12638C4.70108 7.34296 5.28468 8.4807 5.83733 9.31724C6.11355 9.73536 6.3854 10.0834 6.63033 10.3293C6.75259 10.4522 6.87251 10.5539 6.98693 10.6262C7.09769 10.6962 7.22326 10.7514 7.35238 10.7514C7.42053 10.7514 7.50022 10.7447 7.57696 10.7121C7.65951 10.6771 7.72358 10.6188 7.76882 10.5405C7.84886 10.4021 7.87079 10.1972 7.87079 9.92864V7.44244L7.87041 7.43661C7.83043 6.83176 7.63989 6.49152 7.45436 6.24964C7.41369 6.19663 7.3736 6.14875 7.33851 6.10685L7.3289 6.09537C7.29037 6.04932 7.25972 6.01211 7.23453 5.97673C7.18838 5.9119 7.17048 5.86671 7.16902 5.81827C7.17504 5.76078 7.20331 5.70744 7.24841 5.66884C7.29521 5.62878 7.35646 5.60792 7.41915 5.61041H10.1911C10.3501 5.61041 10.4036 5.64758 10.4305 5.68162C10.4685 5.72968 10.5012 5.82963 10.5012 6.03936V9.38657C10.5012 9.78414 10.6925 10.0533 10.9702 10.0533C11.2898 10.0533 11.5201 9.86751 11.923 9.48139L11.9297 9.47496L11.9357 9.46787C12.8386 8.41262 13.5766 7.23696 14.1258 5.97783L14.1293 5.96839C14.1706 5.85713 14.2487 5.76188 14.3518 5.69716C14.4549 5.63245 14.5772 5.60183 14.7001 5.60998L14.7068 5.61041H16.4729C16.7137 5.61041 16.793 5.66917 16.8186 5.70391C16.8459 5.74088 16.8648 5.8201 16.8186 5.97548C16.1853 7.33281 15.4023 8.6212 14.4831 9.81903L14.4773 9.82745C14.3881 9.95828 14.2902 10.103 14.276 10.2692C14.2608 10.4476 14.3414 10.6098 14.4823 10.7837C14.585 10.9292 14.7969 11.1279 15.0118 11.3296L15.0321 11.3486C15.2574 11.56 15.5015 11.7889 15.6975 12.0107L15.7027 12.0165L15.7084 12.022C16.2926 12.5805 16.7784 13.2261 17.1468 13.9336C17.2056 14.1262 17.1696 14.2246 17.1239 14.2754C17.0704 14.3348 16.9506 14.3902 16.7238 14.3902H14.9643C14.8269 14.3902 14.7209 14.3643 14.6195 14.313C14.5139 14.2595 14.4054 14.1745 14.2692 14.0433C14.1595 13.9376 14.0397 13.8098 13.8934 13.6539C13.8572 13.6152 13.8193 13.5747 13.7795 13.5325Z" fill="#2C84B6"></path>
  </g>
  <defs>
    <clipPath id="clip0_2002_1204">
      <rect width="18" height="18" fill="white" transform="translate(0.333374 0.5)"></rect>
    </clipPath>
  </defs>
</svg>
