<?xml version="1.0" encoding="UTF-8"?>
<svg xmlns="http://www.w3.org/2000/svg" width="50" height="50" viewBox="0 0 50 50" fill="none">
  <circle cx="25" cy="25" r="25" fill="#0076FE"></circle>
  <path fill-rule="evenodd" clip-rule="evenodd" d="M36.8091 30.2726C36.2498 29.193 35.5129 28.2068 34.6266 27.3519C34.325 27.0158 33.9714 26.6842 33.6953 26.4254L33.6568 26.3893C33.5144 26.2556 33.3967 26.1448 33.3005 26.0493C34.5123 24.4342 35.5495 22.7049 36.3957 20.8879L36.4299 20.8146L36.4538 20.7377C36.565 20.3801 36.6931 19.7 36.2399 19.0854C35.7716 18.4502 35.0216 18.3356 34.5194 18.3356H32.2088C31.7272 18.3145 31.2502 18.4393 30.8461 18.693C30.4389 18.9486 30.1274 19.3216 29.956 19.7575C29.4584 20.8934 28.8358 21.9739 28.0995 22.9809V20.3858C28.0995 20.0503 28.0666 19.4892 27.6918 19.0156C27.2431 18.4485 26.5942 18.3356 26.1437 18.3356H22.4774C22.0051 18.3252 21.5457 18.487 21.1927 18.7892C20.8311 19.0986 20.6096 19.5309 20.575 19.9943L20.5717 20.0382V20.0822C20.5717 20.5606 20.7695 20.9136 20.9275 21.1355C20.9983 21.2349 21.074 21.3253 21.1218 21.3825L21.1328 21.3957C21.1838 21.4566 21.2178 21.4972 21.2519 21.5418C21.3418 21.6589 21.471 21.8394 21.5075 22.3066V23.7582C20.8755 22.7624 20.2087 21.4372 19.707 20.0219L19.6993 20.0002L19.6908 19.9787C19.5657 19.6648 19.3651 19.2079 18.9632 18.8582C18.4938 18.4498 17.9386 18.3356 17.4336 18.3356H15.0893C14.5784 18.3356 13.9626 18.4502 13.5031 18.9147C13.0512 19.3716 13 19.919 13 20.2101V20.3413L13.0288 20.4696C13.6782 23.3582 15.0161 26.0633 16.9376 28.3733C17.8088 29.6899 18.9892 30.7936 20.385 31.5956C21.8031 32.4107 23.4029 32.891 25.0526 32.9972L25.0956 33H25.1388C25.8851 33 26.6632 32.9383 27.2482 32.5646C28.0375 32.0605 28.0995 31.2863 28.0995 30.9005V29.7791C28.3021 29.936 28.5534 30.1473 28.861 30.4312C29.2329 30.7879 29.5291 31.0971 29.7831 31.3669L29.9186 31.5114L29.9194 31.5122C30.1166 31.7227 30.3108 31.9299 30.4875 32.1002C30.7097 32.3143 30.9836 32.5502 31.328 32.7244C31.7008 32.9132 32.0922 32.9985 32.5079 32.9985H34.8539C35.348 32.9985 36.0569 32.8865 36.5553 32.3327C37.0984 31.7292 37.057 30.9895 36.8862 30.4579L36.8555 30.3623L36.8091 30.2726ZM30.9282 30.3767C30.6642 30.0961 30.3457 29.7635 29.9433 29.3779L29.94 29.3747C28.5456 28.0862 27.894 27.8617 27.4333 27.8617C27.1883 27.8617 26.9171 27.8881 26.7412 28.0981C26.6581 28.1973 26.6145 28.3169 26.59 28.4416C26.5656 28.566 26.5571 28.7122 26.5571 28.8786V30.9005C26.5571 31.1516 26.5141 31.257 26.3929 31.3345C26.2315 31.4376 25.8865 31.5211 25.1474 31.5217C23.7445 31.4301 22.3842 31.021 21.1782 30.3279C19.9696 29.6334 18.9506 28.6736 18.2049 27.5277L18.1967 27.5153L18.1871 27.5038C16.3967 25.3679 15.1491 22.8624 14.5427 20.1852C14.546 20.0561 14.5751 19.9795 14.6224 19.9317C14.6711 19.8825 14.7891 19.8139 15.0893 19.8139H17.4336C17.6944 19.8139 17.8294 19.8682 17.9265 19.9528C18.0366 20.0486 18.1321 20.2113 18.2482 20.5018C18.8236 22.1239 19.6017 23.6409 20.3386 24.7563C20.7069 25.3138 21.0694 25.7779 21.3959 26.1057C21.559 26.2695 21.7188 26.4051 21.8714 26.5016C22.0191 26.5949 22.1865 26.6686 22.3587 26.6686C22.4495 26.6686 22.5558 26.6596 22.6581 26.6161C22.7682 26.5695 22.8536 26.4917 22.9139 26.3873C23.0206 26.2028 23.0499 25.9295 23.0499 25.5715V22.2566L23.0494 22.2488C22.9961 21.4423 22.742 20.9887 22.4946 20.6662C22.4404 20.5955 22.387 20.5316 22.3402 20.4758L22.3274 20.4605C22.276 20.3991 22.2351 20.3495 22.2015 20.3023C22.14 20.2159 22.1161 20.1556 22.1142 20.091C22.1222 20.0144 22.1599 19.9432 22.22 19.8918C22.2824 19.8384 22.3641 19.8105 22.4477 19.8139H26.1437C26.3556 19.8139 26.427 19.8634 26.4628 19.9088C26.5135 19.9729 26.5571 20.1062 26.5571 20.3858V24.8487C26.5571 25.3788 26.8121 25.7378 27.1824 25.7378C27.6085 25.7378 27.9157 25.49 28.4528 24.9752L28.4618 24.9666L28.4698 24.9571C29.6737 23.5501 30.6576 21.9826 31.3899 20.3037L31.3945 20.2912C31.4496 20.1428 31.5538 20.0158 31.6913 19.9295C31.8287 19.8432 31.9917 19.8024 32.1556 19.8133L32.1646 19.8139H34.5194C34.8405 19.8139 34.9462 19.8922 34.9803 19.9385C35.0166 19.9878 35.0419 20.0935 34.9802 20.3006C34.1359 22.1104 33.0919 23.8283 31.8663 25.4253L31.8586 25.4366C31.7396 25.611 31.6091 25.804 31.5902 26.0255C31.57 26.2634 31.6774 26.4797 31.8653 26.7115C32.0022 26.9056 32.2847 27.1706 32.5713 27.4394L32.5983 27.4647C32.8988 27.7466 33.2242 28.0519 33.4855 28.3475L33.4925 28.3553L33.5001 28.3626C34.279 29.1073 34.9267 29.9681 35.4179 30.9114C35.4963 31.1682 35.4483 31.2995 35.3873 31.3672C35.3161 31.4464 35.1563 31.5203 34.8539 31.5203H32.5079C32.3247 31.5203 32.1833 31.4857 32.0482 31.4173C31.9074 31.346 31.7626 31.2327 31.5811 31.0578C31.4348 30.9168 31.275 30.7463 31.0801 30.5385C31.0318 30.487 30.9813 30.433 30.9282 30.3767Z" fill="white"></path>
</svg>
