<?xml version="1.0" encoding="UTF-8"?>
<svg xmlns="http://www.w3.org/2000/svg" width="50" height="50" viewBox="0 0 50 50" fill="none">
  <circle cx="25" cy="25" r="25" fill="#25D366"></circle>
  <path d="M32.3096 17.61C31.4843 16.7791 30.502 16.1205 29.4199 15.6724C28.3376 15.2243 27.177 14.9958 26.0056 15C24.4397 15.0015 22.9015 15.4142 21.5453 16.1967C20.1891 16.9793 19.0624 18.1042 18.2781 19.4588C17.4937 20.8134 17.0793 22.3502 17.0763 23.9152C17.0732 25.4803 17.4817 27.0186 18.2608 28.3763L17 33L21.728 31.7625C23.0335 32.4884 24.5005 32.8752 25.9944 32.8875C28.3693 32.8876 30.648 31.9502 32.3346 30.2793C34.0212 28.6086 34.9792 26.3396 35 23.9663C34.9921 22.782 34.7503 21.6109 34.2887 20.5202C33.827 19.4294 33.1544 18.4405 32.3096 17.61ZM26.0056 31.3463C24.6747 31.3472 23.3681 30.9896 22.2233 30.3113L21.9531 30.1425L19.1501 30.885L19.8931 28.1513L19.7129 27.87C18.7553 26.325 18.3978 24.4826 18.7084 22.6919C19.0189 20.9011 19.9759 19.2864 21.398 18.1536C22.8201 17.0208 24.6085 16.4486 26.4245 16.5454C28.2405 16.6422 29.958 17.4012 31.2514 18.6787C32.6653 20.0605 33.4747 21.9452 33.5028 23.9213C33.485 25.8966 32.6872 27.7851 31.2832 29.1757C29.8792 30.5662 27.9824 31.3464 26.0056 31.3463ZM30.0694 25.7888C29.8443 25.6763 28.7523 25.1363 28.5497 25.0688C28.3471 25.0013 28.1895 24.9563 28.0432 25.1813C27.823 25.4829 27.5861 25.772 27.334 26.0475C27.2101 26.205 27.075 26.2163 26.8499 26.0475C25.5663 25.5406 24.4968 24.6068 23.8218 23.4038C23.5854 23.01 24.0469 23.0325 24.4747 22.1888C24.5063 22.1279 24.5227 22.0604 24.5227 21.9919C24.5227 21.9234 24.5063 21.8559 24.4747 21.795C24.4747 21.6825 23.9681 20.58 23.788 20.1412C23.6079 19.7025 23.4278 19.77 23.2814 19.7587H22.8424C22.7286 19.7605 22.6166 19.7865 22.5137 19.835C22.4108 19.8835 22.3195 19.9534 22.2458 20.04C21.9932 20.2854 21.7962 20.5822 21.668 20.9101C21.5399 21.2381 21.4835 21.5897 21.5028 21.9413C21.5734 22.7829 21.8905 23.585 22.4146 24.2475C23.374 25.6828 24.6887 26.8455 26.2308 27.6225C27.0396 28.0943 27.9795 28.2917 28.9099 28.185C29.2197 28.1236 29.5132 27.9977 29.7711 27.8154C30.0291 27.6333 30.2458 27.3989 30.4071 27.1275C30.5566 26.7963 30.6037 26.4281 30.5422 26.07C30.4409 25.9575 30.2946 25.9013 30.0694 25.7888Z" fill="white"></path>
</svg>
